# xmcd
#
# Track frame offsets:
# 150
# 22343
# 43681
# 63511
# 87467
# 109805
# 133621
# 155353
# 185564
# 207297
# 234206
# 259610
# 278153
# 294049
# 312146
#
# Disc length: 4429 seconds
#
#
# Revision: 0
# Processed by: cddbd v1.5.1PL2 Copyright (c) Steve Scherf et al.
# Submitted via: FreeRIP 2.945 
#
DISCID=d2114b0f
DTITLE=Eminem - The best of Eminem
DYEAR=2005
DGENRE=Rap
TTITLE0=Like toy soldiers
TTITLE1=The real Slim Shady
TTITLE2=Kill You
TTITLE3=Lose Yourself
TTITLE4=Cleanin out my closet
TTITLE5=Mosh
TTITLE6=Without me
TTITLE7=Stan
TTITLE8=The way i am
TTITLE9=8 Mile
TTITLE10=Sing for the moment
TTITLE11=Just lose it
TTITLE12=I'm shady
TTITLE13=Just don't give A fuck
TTITLE14=My name is
EXTD=Slim Shady
EXTT0=
EXTT1=
EXTT2=
EXTT3=
EXTT4=
EXTT5=
EXTT6=
EXTT7=
EXTT8=
EXTT9=
EXTT10=
EXTT11=
EXTT12=
EXTT13=
EXTT14=
PLAYORDER=
